<?xml version="1.0" standalone="no"?>
<!DOCTYPE svg PUBLIC "-//W3C//DTD SVG 20010904//EN"
 "http://www.w3.org/TR/2001/REC-SVG-20010904/DTD/svg10.dtd">
<svg version="1.0" xmlns="http://www.w3.org/2000/svg"
 width="122.000000pt" height="124.000000pt" viewBox="0 0 122.000000 124.000000"
 preserveAspectRatio="xMidYMid meet">

<g transform="translate(0.000000,124.000000) scale(0.100000,-0.100000)"
fill="#000000" stroke="none">
<path d="M405 1156 c-203 -49 -340 -254 -305 -454 24 -138 106 -248 229 -305
114 -54 261 -47 374 16 l38 21 182 -182 c100 -100 189 -182 198 -182 19 0 49
31 49 50 0 8 -81 96 -181 196 l-181 182 26 39 c76 115 87 270 29 396 -56 118
-165 203 -292 227 -67 12 -102 12 -166 -4z m197 -98 c91 -32 175 -121 199
-213 17 -62 6 -162 -24 -220 -118 -231 -439 -232 -556 -2 -30 58 -34 76 -34
139 0 218 210 367 415 296z"/>
</g>
</svg>
